<?xml version="1.0" encoding="UTF-8" standalone="no"?>
<!-- Created with Inkscape (http://www.inkscape.org/) -->

<svg
   xmlns:osb="http://www.openswatchbook.org/uri/2009/osb"
   xmlns:dc="http://purl.org/dc/elements/1.1/"
   xmlns:cc="http://creativecommons.org/ns#"
   xmlns:rdf="http://www.w3.org/1999/02/22-rdf-syntax-ns#"
   xmlns:svg="http://www.w3.org/2000/svg"
   xmlns="http://www.w3.org/2000/svg"
   xmlns:xlink="http://www.w3.org/1999/xlink"
   xmlns:sodipodi="http://sodipodi.sourceforge.net/DTD/sodipodi-0.dtd"
   xmlns:inkscape="http://www.inkscape.org/namespaces/inkscape"
   width="512"
   height="512"
   viewBox="0 0 135.46663 135.46667"
   version="1.1"
   id="svg8"
   inkscape:version="0.92.5 (2060ec1f9f, 2020-04-08)"
   sodipodi:docname="app_icon.svg"
   inkscape:export-filename="/home/berthold/Schreibtisch/Rastergrafik.png"
   inkscape:export-xdpi="104.86603"
   inkscape:export-ydpi="104.86603">
  <defs
     id="defs2">
    <linearGradient
       id="linearGradient250408"
       osb:paint="solid">
      <stop
         style="stop-color:#ffff7c;stop-opacity:1;"
         offset="0"
         id="stop250406" />
    </linearGradient>
    <linearGradient
       inkscape:collect="always"
       id="linearGradient87241">
      <stop
         style="stop-color:#000000;stop-opacity:1;"
         offset="0"
         id="stop87237" />
      <stop
         style="stop-color:#000000;stop-opacity:0;"
         offset="1"
         id="stop87239" />
    </linearGradient>
    <linearGradient
       inkscape:collect="always"
       id="linearGradient87233">
      <stop
         style="stop-color:#666666;stop-opacity:0.38"
         offset="0"
         id="stop87229" />
      <stop
         style="stop-color:#666666;stop-opacity:0.525"
         offset="1"
         id="stop87231" />
    </linearGradient>
    <linearGradient
       inkscape:collect="always"
       xlink:href="#linearGradient87233"
       id="linearGradient87235"
       x1="9.5753984"
       y1="283.83383"
       x2="25.135416"
       y2="296.99997"
       gradientUnits="userSpaceOnUse"
       gradientTransform="matrix(1.105263,0,0,1.1052637,-1.3229172,-29.940404)" />
    <radialGradient
       inkscape:collect="always"
       xlink:href="#linearGradient87241"
       id="radialGradient87245"
       cx="13.229167"
       cy="283.11011"
       fx="13.229167"
       fy="283.11011"
       r="14.271395"
       gradientTransform="matrix(1,0,0,1.0011362,-6.3578288e-7,0.33902315)"
       gradientUnits="userSpaceOnUse" />
    <symbol
       id="icon-magnifying-glass"
       viewBox="0 0 1024 1024">
      <title
         id="title73402">magnifying-glass</title>
      <path
         style="stroke-width:0.26458332"
         inkscape:connector-curvature="0"
         d="M 170.4594,0 C 115.09587,0 70.044733,45.042667 70.044733,100.44007 c 0,13.2588 2.709334,25.8318 7.374467,37.40573 L 0,215.27347 55.626,270.93333 133.07907,193.4464 c 11.57393,4.699 24.14693,7.40833 37.37186,7.40833 55.3974,0 100.47394,-45.04266 100.47394,-100.39773 C 270.93333,45.042667 225.8568,0 170.4594,0 Z m 0,167.02193 c -36.6776,0 -66.5734,-29.8958 -66.5734,-66.56493 0,-36.711467 29.8958,-66.607267 66.5734,-66.607267 36.74533,0 66.64113,29.8958 66.64113,66.607267 0,36.66067 -29.8958,66.56493 -66.64113,66.56493 z"
         id="path73404" />
    </symbol>
    <symbol
       viewBox="0 0 64 64"
       id="emoji-1f432">
      <title
         id="title27230">1f432</title>
      <g
         style="fill:#ed4c5c"
         id="g27236">
        <path
           style="stroke-width:0.26458332"
           inkscape:connector-curvature="0"
           d="M 9.2921667,8.2258958 C 8.9069333,7.8964896 8.7452729,7.4890312 7.1728542,8.1782708 6.1306604,8.6349417 6.3812208,8.8122125 5.0244375,8.3891437 3.1419271,7.8025625 2.4579792,8.8188271 2.0148021,8.9556167 c 0,0 1.063625,-0.2918355 1.9338396,0.3966104 1.1477625,0.9072559 4.568825,0.4296833 5.0866145,0.5730875 0.1740959,0.04789 0.6429375,-1.3697479 0.2574396,-1.6994188"
           id="path27232" />
        <path
           style="stroke-width:0.26458332"
           inkscape:connector-curvature="0"
           d="m 9.350375,9.0619792 c 0.00238,0.012171 0.017727,0.0127 0,0"
           id="path27234" />
      </g>
      <path
         style="fill:#ffd93b;stroke-width:0.26458332"
         inkscape:connector-curvature="0"
         d="m 8.8407875,8.2338333 c -1.5324667,-2.646e-4 -1.4882813,1.0046229 -3.8282563,0.733425 0,0 1.2816417,0.6982355 2.5878896,0.3180292 0.7903104,-0.2299229 1.3417021,0 1.3417021,0 L 8.8407875,8.2338333"
         id="path27238" />
      <path
         style="fill:#64892f;stroke-width:0.26458332"
         inkscape:connector-curvature="0"
         d="M 14.705542,7.2448208 C 16.055975,7.864475 16.404167,5.9496854 16.404167,5.9496854 14.688079,6.1282792 14.200452,5.4541208 14.200452,5.4541208 15.383669,5.9586812 15.875,3.9012812 15.875,3.9012812 14.066837,4.5788792 14.364494,3.2636354 12.430125,3.2636354 c 0,-0.6521979 0.822325,-1.4782271 0.822325,-1.4782271 -2.1717,-0.5291666 -3.001698,0.9678459 -3.001698,0.9678459 -0.8075083,-0.6985 -0.157162,-1.6949209 -0.157162,-1.6949209 -2.2928796,0 -3.2014588,3.5165771 -3.2014588,3.5168417 0.4757209,-0.4773083 7.1834378,11.828992 7.1834378,11.828992 h 1.339056 c 0.07964,-0.982927 -0.23204,-2.204509 -0.23204,-2.204509 0.436034,-0.436298 0.902759,0.553244 0.902759,0.553244 0,-1.53379 -0.673365,-2.682875 -0.673365,-2.682875 0.354806,-0.354806 0.796396,0.316442 0.796396,0.316442 0,-1.259152 -0.784225,-1.93675 -0.784225,-1.93675 0.416454,-0.416454 0.694531,-0.09922 0.694531,-0.09922 0,-0.9532938 -0.959114,-1.2787313 -0.959114,-1.2787313 C 16.09381,9.1268021 16.296481,8.232775 16.296481,8.232775 15.120937,8.3849104 14.706335,7.2448208 14.706335,7.2448208"
         id="path27240" />
      <path
         style="fill:#8cc63e;stroke-width:0.26458332"
         inkscape:connector-curvature="0"
         d="m 6.2343771,11.2395 c 3.4898541,1.125802 2.9606875,5.164667 2.9606875,5.164667 h 5.1154544 c 0,0 1.322916,-7.6393149 -1.355196,-10.5534358 L 9.8345625,10.383044 6.2343771,11.239235"
         id="path27242" />
      <path
         style="fill:#ffdd7d;stroke-width:0.26458332"
         inkscape:connector-curvature="0"
         d="m 6.2343771,11.2395 c 3.4898541,1.125802 2.6961041,5.164667 2.6961041,5.164667 h 1.5052148 c 0,0 0.186796,-4.353719 -1.4665856,-4.8514 z"
         id="path27244" />
      <g
         style="fill:#64892f"
         id="g27250">
        <path
           style="stroke-width:0.26458332"
           inkscape:connector-curvature="0"
           d="m 6.5714562,11.43 c 3.362325,0.4572 7.2868898,1.266296 7.1104128,-4.5661792 L 9.8345625,10.187517 6.5714562,11.43"
           id="path27246" />
        <path
           style="stroke-width:0.26458332"
           inkscape:connector-curvature="0"
           d="M 2.1537083,7.3117604 C 2.0060708,7.362825 1.8288,7.127875 1.9147896,6.7008375 1.9999854,6.2751229 2.301875,5.6472667 3.4819167,5.4684083 4.6619583,5.2876979 5.4792562,5.2257854 5.5639229,4.1865021 5.6491187,3.146425 6.0840937,2.8937479 6.435725,2.7532542 c 0,0 -0.5789083,0.420952 -0.5720292,1.1205104 C 5.8711042,4.5730583 5.5924979,5.5488417 4.6746583,5.7160583 3.7578771,5.8848625 2.7508729,6.0761562 2.4889354,6.4471021 2.2264687,6.8172542 2.4386646,7.216775 2.1537083,7.3117604"
           id="path27248" />
      </g>
      <path
         style="fill:#8cc63e;stroke-width:0.26458332"
         inkscape:connector-curvature="0"
         d="m 9.6149583,3.2093958 c -1.9079104,0 -3.5057291,1.31445 -3.9573729,3.0900688 C 5.3321479,5.8152771 4.7886937,5.4924854 4.1626896,5.4924854 c -0.3886729,0 -0.7458604,0.1240896 -1.0419292,0.333375 C 2.9030083,5.3599292 2.4357542,5.0360792 1.8907125,5.0360792 c -0.7530042,0 -1.36313333,0.612775 -1.36313333,1.3700125 0,0.7559145 0.61039373,1.3694833 1.36313333,1.3694833 h 6.3605833 c 0.5021792,0 0.9088438,0.4079875 0.9088438,0.9133417 0,0.504825 -0.4064,0.9128125 -0.9088438,0.9128125 h -6.815402 c -0.50059172,0 -0.90910838,0.4111628 -0.90910838,0.9130768 0,0.502709 0.40851666,0.913607 0.90910838,0.913607 h 8.1785354 c 2.2579538,0 4.0893998,-1.8401776 4.0893998,-4.1097734 0,-2.2698604 -1.831446,-4.1092438 -4.0893998,-4.1092438"
         id="path27252" />
      <path
         style="fill:#3e4347;stroke-width:0.26458332"
         inkscape:connector-curvature="0"
         d="M 2.2730354,6.1695542 C 2.1224875,6.3960375 1.7872604,6.4730312 1.527175,6.3423271 1.2649729,6.2126812 1.6486187,6.1587062 1.800225,5.9327521 1.9510375,5.7067979 1.811867,5.3930021 2.073275,5.5239708 2.3344187,5.6541458 2.4238479,5.9425417 2.2730354,6.1695542"
         id="path27254" />
      <g
         style="fill:#ffffff"
         id="g27264">
        <path
           style="stroke-width:0.26458332"
           inkscape:connector-curvature="0"
           d="M 1.2102042,7.7761042 1.6647583,8.6894458 2.1193125,7.7761042 Z"
           id="path27256" />
        <path
           style="stroke-width:0.26458332"
           inkscape:connector-curvature="0"
           d="M 1.6647583,9.6017292 2.1193125,8.6894458 2.5736021,9.6017292 Z"
           id="path27258" />
        <path
           style="stroke-width:0.26458332"
           inkscape:connector-curvature="0"
           d="M 2.1193125,9.6017292 V 8.9662 l 2.0817417,0.6355292 z"
           id="path27260" />
        <path
           style="stroke-width:0.26458332"
           inkscape:connector-curvature="0"
           d="M 1.6647583,7.5967167 V 8.2311875 L 3.7467646,7.5967167 Z"
           id="path27262" />
      </g>
      <path
         style="fill:#ffdd7d;stroke-width:0.26458332"
         inkscape:connector-curvature="0"
         d="M 8.0258708,7.3194333 H 0.75591458 c -0.12567708,0 -0.22727708,0.1021292 -0.22727708,0.2286 0,0.1254125 0.10186458,0.2280709 0.22727708,0.2280709 H 8.0258708 c 0.3757084,0 0.6815667,0.3063875 0.6815667,0.6850062 v 0.4564063 c 0,0.3770312 -0.3058583,0.6850062 -0.6815667,0.6850062 H 0.75591458 c -0.12567708,0 -0.22727708,0.1026583 -0.22727708,0.2280708 0,0.1262063 0.10186458,0.2280713 0.22727708,0.2280713 H 8.0258708 c 0.6262688,0 1.1358563,-0.51144 1.1358563,-1.1411483 V 8.4611104 c 0,-0.6297083 -0.5095875,-1.1416771 -1.1358563,-1.1416771"
         id="path27266" />
      <path
         style="fill:#64892f;stroke-width:0.26458332"
         inkscape:connector-curvature="0"
         d="m 0.63711667,11.234208 c 0.21563541,-0.567002 1.46526253,-0.123296 1.71053123,0.445559 0.4090458,0.949854 0.8680979,1.027641 0.8680979,1.027641 0,0 -1.02235,0.132292 -1.4036146,-0.611187 0,0 0.5122334,1.013354 1.442773,1.256241 0,0 -1.3832417,0.336286 -2.1074063,-0.694795 0,0 -0.064558,0.344752 0.1632479,1.053835 2.646e-4,0 -1.12924163,-1.280054 -0.67362913,-2.477294"
         id="path27268" />
      <ellipse
         style="fill:#8cc63e;stroke-width:0.26458332"
         cx="6.88975"
         cy="5.4930143"
         rx="1.190625"
         ry="1.1797771"
         id="ellipse27270" />
      <ellipse
         style="fill:#ffffff;stroke-width:0.26458332"
         cx="6.88975"
         cy="5.4930143"
         rx="0.92604166"
         ry="0.917575"
         id="ellipse27272" />
      <path
         style="fill:#3e4347;stroke-width:0.26458332"
         inkscape:connector-curvature="0"
         d="m 7.4189167,5.4935437 c 0,0.2894542 -0.2373313,0.5244042 -0.5291667,0.5244042 -0.2915708,0 -0.5291667,-0.23495 -0.5291667,-0.5244042 0,-0.2902479 0.2375959,-0.5244041 0.5291667,-0.5244041 0.2918354,0 0.5291667,0.2341562 0.5291667,0.5244041"
         id="path27274" />
      <g
         style="fill:#64892f"
         id="g27282">
        <path
           style="stroke-width:0.26458332"
           inkscape:connector-curvature="0"
           d="m 7.083425,3.2093958 c 0,0 -1.3832417,0.7485063 -1.050925,1.4295438 0.333375,0.6799791 2.3561146,-0.5715 3.5835167,0.3971396 0,0 -0.206375,-0.5786438 -0.6156855,-0.6815667 0,0 0.1770063,-0.1391708 0.5783792,-0.1677458 0,0 -0.422275,-0.5344584 -1.1964458,-0.015875 0,0 0.053975,-0.3550709 0.3384021,-0.5439834 0,0 -0.6373813,0.00212 -1.0689167,0.4357688 0,0 -0.1735667,-0.089958 0.055827,-0.5463646 0,0 -0.434975,0.1698625 -0.7442729,0.5318125 -2.646e-4,0 -0.1293813,-0.2682875 0.1209145,-0.8389937"
           id="path27276" />
        <path
           style="stroke-width:0.26458332"
           inkscape:connector-curvature="0"
           d="M 2.9553958,7.0694021 C 2.8051125,7.0141042 2.7987625,6.7220042 3.1215542,6.4465729 3.4438167,6.1706125 4.0629417,5.8782479 5.1345042,6.4862604 6.2050083,7.096125 6.9117104,7.5652312 7.5967167,6.8154021 8.2809292,6.0679542 8.7870771,6.1470646 9.1574937,6.2608354 c 0,0 -0.7231062,-0.041275 -1.1310937,0.5042958 C 7.6173542,7.3091146 6.8122271,7.8856417 5.96265,7.4345271 5.1125437,6.9828833 4.1753896,6.4936687 3.7417375,6.6132604 3.3086146,6.7336458 3.2451146,7.1768229 2.9553958,7.0694021"
           id="path27278" />
        <path
           style="stroke-width:0.26458332"
           inkscape:connector-curvature="0"
           d="M 10.617729,15.099771 H 8.9984792 L 8.92175,14.403917 h 1.695979 z"
           id="path27280" />
      </g>
      <path
         style="fill:#ed4c5c;stroke-width:0.26458332"
         inkscape:connector-curvature="0"
         d="M 1.2012083,9.5699792 C 0.92075,9.6353312 0.6588125,9.5429917 0.61674375,9.3638687 0.57441042,9.1844812 0.76782083,8.9857792 1.0488083,8.9201625 c 0.2812521,-0.065352 0.8543396,0.1431396 0.8543396,0.1431396 0,0 -0.4204229,0.4407958 -0.7019396,0.5066771"
         id="path27284" />
      <path
         style="fill:#ffd93b;stroke-width:0.26458332"
         inkscape:connector-curvature="0"
         d="M 1.2197292,9.4321312 C 1.0490729,9.4718187 0.8905875,9.4157271 0.86439375,9.3067188 c -0.0254,-0.1084792 0.0918104,-0.2291292 0.26220205,-0.2693459 0.1709209,-0.039423 0.5188479,0.087048 0.5188479,0.087048 0,0 -0.2553229,0.2680229 -0.4257145,0.3077104"
         id="path27286" />
      <path
         style="fill:#ed4c5c;stroke-width:0.26458332"
         inkscape:connector-curvature="0"
         d="M 1.63195,8.556625 C 1.4401271,8.5217 1.3033375,8.3933771 1.3263562,8.2706104 1.3488458,8.1483729 1.5226771,8.0777292 1.7147646,8.1131833 c 0.1920875,0.035454 0.4905375,0.3201459 0.4905375,0.3201459 0,0 -0.3815292,0.1584854 -0.5733521,0.1232958"
         id="path27288" />
    </symbol>
  </defs>
  <sodipodi:namedview
     id="base"
     pagecolor="#ffffff"
     bordercolor="#000000"
     borderopacity="1"
     inkscape:pageopacity="0"
     inkscape:pageshadow="2"
     inkscape:zoom="0.9899495"
     inkscape:cx="-29.747377"
     inkscape:cy="168.69055"
     inkscape:document-units="mm"
     inkscape:current-layer="layer1"
     showgrid="false"
     units="px"
     showguides="false"
     inkscape:snap-text-baseline="false"
     showborder="true"
     inkscape:pagecheckerboard="false"
     borderlayer="true"
     inkscape:showpageshadow="false"
     inkscape:window-width="1920"
     inkscape:window-height="1015"
     inkscape:window-x="1920"
     inkscape:window-y="0"
     inkscape:window-maximized="1">
    <inkscape:grid
       type="xygrid"
       id="grid85625" />
  </sodipodi:namedview>
  <metadata
     id="metadata5">
    <rdf:RDF>
      <cc:Work
         rdf:about="">
        <dc:format>image/svg+xml</dc:format>
        <dc:type
           rdf:resource="http://purl.org/dc/dcmitype/StillImage" />
        <dc:title></dc:title>
      </cc:Work>
    </rdf:RDF>
  </metadata>
  <g
     inkscape:label="Ebene 1"
     inkscape:groupmode="layer"
     id="layer1"
     transform="translate(0,-161.53331)">
    <text
       xml:space="preserve"
       style="font-style:normal;font-weight:normal;font-size:22.66374969px;line-height:1.25;font-family:sans-serif;letter-spacing:0px;word-spacing:0px;fill:#000000;fill-opacity:1;stroke:none;stroke-width:0.56659377"
       x="67.939392"
       y="312.63919"
       id="text119824"
       transform="scale(1.0777274,0.92787842)"
       inkscape:export-filename="/home/berthold/Schreibtisch/use152406.png"
       inkscape:export-xdpi="104"
       inkscape:export-ydpi="104"><tspan
         sodipodi:role="line"
         id="tspan119822"
         x="67.939392"
         y="312.63919"
         style="font-size:45.32749939px;stroke-width:0.56659377">\w</tspan></text>
    <use
       id="use152406"
       transform="matrix(-3.7856559,0,0,3.8469682,132.2135,153.74083)"
       xlink:href="#emoji-1f432"
       x="0"
       y="0"
       width="100%"
       height="100%"
       inkscape:export-filename="/home/berthold/Schreibtisch/use152406.png"
       inkscape:export-xdpi="104"
       inkscape:export-ydpi="104" />
  </g>
</svg>
